<svg xmlns="http://www.w3.org/2000/svg" viewBox="0 0 755.98 176.25"><defs><style>.cls-1{fill:#ed4a4a;}.cls-2{fill:#fff;}.cls-3{fill:#ed694a;}.cls-4{fill:#d8553a;}.cls-5{fill:#f4a32c;}.cls-6{fill:#e89528;}.cls-7{fill:#f4d44e;}.cls-8{fill:#eae9e8;}.cls-9{fill:#f7e7a1;}.cls-10{fill:#e8c842;}</style></defs><title>logo_1</title><g id="Layer_2" data-name="Layer 2"><g id="Layer_1-2" data-name="Layer 1"><path class="cls-1" d="M130,175V56L78.5,140,26.25,57.5V175H0V0H20.75L78.5,92,136.25,0h20.5V175Z"/><path class="cls-2" d="M245.25,175v-6a33.78,33.78,0,0,1-15.38,6.13,138.55,138.55,0,0,1-18.37,1.12,64,64,0,0,1-17.75-2.37,41,41,0,0,1-14.25-7.13A33.06,33.06,0,0,1,170.12,155a37,37,0,0,1-3.37-16.25,42.17,42.17,0,0,1,4-18.87,38.87,38.87,0,0,1,10.75-13.5,45.26,45.26,0,0,1,15.75-8A66.62,66.62,0,0,1,216,95.75q8,0,15.12.25a59.14,59.14,0,0,1,14.13,2.25v-3q0-11-7-16.87T219,72.5a53.53,53.53,0,0,0-7.5.5,24.28,24.28,0,0,0-6.75,2,26.73,26.73,0,0,0-6.5,4.38,67.06,67.06,0,0,0-7,7.37l-18.5-16Q182.5,59.5,193.5,54.13t26-5.38a70,70,0,0,1,20.62,2.88,45.77,45.77,0,0,1,16.13,8.5,38.25,38.25,0,0,1,10.5,14,46.33,46.33,0,0,1,3.75,19.12V175Zm0-51.5a45.77,45.77,0,0,0-12.63-2.75c-4.41-.33-9-.5-13.62-.5a53,53,0,0,0-9.75.88,31,31,0,0,0-8.63,2.87,16.37,16.37,0,0,0-6.25,5.63A15.84,15.84,0,0,0,192,138.5a12.17,12.17,0,0,0,6,11q6,3.75,17,3.75a41.27,41.27,0,0,0,16.75-3.5A33.67,33.67,0,0,0,245.25,139Z"/><path class="cls-2" d="M355,84.75A35.9,35.9,0,0,0,344.12,75a28.31,28.31,0,0,0-13.88-3.25q-9,0-12.87,3.13a9.69,9.69,0,0,0-3.88,7.87q0,6.51,7,10a102.53,102.53,0,0,0,16,6.25q6.75,2.25,13.63,4.88a48.23,48.23,0,0,1,12.5,7,35,35,0,0,1,9.25,11q3.61,6.62,3.62,16.37A34.58,34.58,0,0,1,362,166.38a43.76,43.76,0,0,1-14.62,7.37,62.46,62.46,0,0,1-17.88,2.5,57.42,57.42,0,0,1-26-5.87q-11.75-5.88-23-18.88l19-17.5q13.75,18.51,30.75,18.5,10.26,0,15.13-3.5t4.87-8.5a11.15,11.15,0,0,0-2-6.75,19,19,0,0,0-5.37-4.87,36.15,36.15,0,0,0-7.88-3.63q-4.5-1.5-9.25-3-6.75-2-13.5-4.5a43.81,43.81,0,0,1-12-6.62,32.42,32.42,0,0,1-8.62-10.5q-3.37-6.37-3.38-16.13,0-17.49,11.88-27T331,48a54.76,54.76,0,0,1,24.13,5.25Q366,58.5,376.74,71.75L358.74,89Z"/><path class="cls-2" d="M467.74,175V96.25q0-12.5-7.12-18.5t-18.13-6A22.25,22.25,0,0,0,432.62,74a34,34,0,0,0-8.38,5.75,47.75,47.75,0,0,0-6.62,7.63q-2.88,4.13-5.13,7.62v80H386.74V0h25.75V58.75a46.68,46.68,0,0,1,14.5-8,56.82,56.82,0,0,1,19-3,57.67,57.67,0,0,1,18.38,2.88A40.6,40.6,0,0,1,489.49,73.5,47.91,47.91,0,0,1,493.24,93v82Z"/><path class="cls-2" d="M581.74,175v-6a33.78,33.78,0,0,1-15.38,6.13A138.55,138.55,0,0,1,548,176.25a64,64,0,0,1-17.75-2.37A41,41,0,0,1,516,166.75,33.06,33.06,0,0,1,506.61,155a37,37,0,0,1-3.37-16.25,42.17,42.17,0,0,1,4-18.87A38.87,38.87,0,0,1,518,106.38a45.26,45.26,0,0,1,15.75-8,66.62,66.62,0,0,1,18.75-2.63q8,0,15.12.25a59.14,59.14,0,0,1,14.13,2.25v-3q0-11-7-16.87T555.49,72.5a53.53,53.53,0,0,0-7.5.5,24.28,24.28,0,0,0-6.75,2,26.73,26.73,0,0,0-6.5,4.38,67.06,67.06,0,0,0-7,7.37l-18.5-16Q519,59.5,530,54.13t26-5.38a70,70,0,0,1,20.62,2.88,45.77,45.77,0,0,1,16.13,8.5,38.25,38.25,0,0,1,10.5,14A46.33,46.33,0,0,1,607,93.25V175Zm0-51.5a45.77,45.77,0,0,0-12.63-2.75c-4.41-.33-9-.5-13.62-.5a53,53,0,0,0-9.75.88,31,31,0,0,0-8.63,2.87,16.37,16.37,0,0,0-6.25,5.63,15.84,15.84,0,0,0-2.37,8.87,12.17,12.17,0,0,0,6,11q6,3.75,17,3.75a41.27,41.27,0,0,0,16.75-3.5A33.67,33.67,0,0,0,581.74,139Z"/><path class="cls-2" d="M695.49,175v-6a33.83,33.83,0,0,1-15.38,6.13,138.55,138.55,0,0,1-18.37,1.12A64,64,0,0,1,644,173.88a41,41,0,0,1-14.25-7.13A33.06,33.06,0,0,1,620.36,155,37,37,0,0,1,617,138.75a42.17,42.17,0,0,1,4-18.87,38.87,38.87,0,0,1,10.75-13.5,45.26,45.26,0,0,1,15.75-8,66.62,66.62,0,0,1,18.75-2.63q8,0,15.12.25a59.14,59.14,0,0,1,14.13,2.25v-3q0-11-7-16.87T669.24,72.5a53.53,53.53,0,0,0-7.5.5A24.28,24.28,0,0,0,655,75a26.73,26.73,0,0,0-6.5,4.38,67.06,67.06,0,0,0-7,7.37l-18.5-16q9.75-11.25,20.75-16.62t26-5.38a70,70,0,0,1,20.62,2.88,45.77,45.77,0,0,1,16.13,8.5,38.25,38.25,0,0,1,10.5,14,46.33,46.33,0,0,1,3.75,19.12V175Zm0-51.5a45.77,45.77,0,0,0-12.63-2.75q-6.63-.5-13.62-.5a53,53,0,0,0-9.75.88,30.85,30.85,0,0,0-8.63,2.87,16.3,16.3,0,0,0-6.25,5.63,15.84,15.84,0,0,0-2.37,8.87,12.17,12.17,0,0,0,6,11q6,3.75,17,3.75a41.27,41.27,0,0,0,16.75-3.5A33.67,33.67,0,0,0,695.49,139Z"/><path class="cls-2" d="M730.73,175V0H756V175Z"/><path class="cls-3" d="M452.17,136.94c-1.17-1.28-3-3-3.77.89A9,9,0,0,1,447,141a19.6,19.6,0,0,0-3.89-7.87,16.32,16.32,0,0,1-3.16-8.74.9.9,0,0,0-1.5-.6,25.49,25.49,0,0,0-8.32,18.88,13,13,0,0,1-3.4-5.32,1.2,1.2,0,0,0-2.12-.29c-.1.16-.2.32-.28.47-4.09,7.23-6.06,16-4.24,24.18,3,13.68,23.15,17.51,33.8,8.91C464.3,162.21,461,146.55,452.17,136.94Z"/><path class="cls-4" d="M422.91,162.57c-1.8-8.25.1-17.12,4.1-24.46-.1-.25-.2-.5-.29-.76a1.2,1.2,0,0,0-2.12-.29c-.1.16-.2.32-.28.47-4.09,7.23-6.06,16-4.24,24.18,1.39,6.24,6.32,10.43,12.3,12.33A16.7,16.7,0,0,1,422.91,162.57Z"/><path class="cls-4" d="M433,142.53a26.36,26.36,0,0,1,7-17.48c0-.25-.05-.48-.07-.66a.89.89,0,0,0-1.47-.63,25.56,25.56,0,0,0-8.35,18.91l1,.74a1.29,1.29,0,0,0,1.56,0A1.19,1.19,0,0,0,433,142.53Z"/><path class="cls-5" d="M449,146.94c-.87-.95-2.21-2.23-2.79.66a6.67,6.67,0,0,1-1,2.34,14.59,14.59,0,0,0-2.87-5.82,12,12,0,0,1-2.33-6.45.67.67,0,0,0-1.11-.44,18.8,18.8,0,0,0-6.15,13.94,9.52,9.52,0,0,1-2.51-3.93.88.88,0,0,0-1.56-.21l-.22.35c-3,5.34-4.47,11.82-3.13,17.86,2.25,10.1,17.1,12.93,25,6.57C457.91,165.6,455.47,154,449,146.94Z"/><path class="cls-6" d="M428.05,166a27.84,27.84,0,0,1,2.66-17.5,9.62,9.62,0,0,1-.55-1.29.88.88,0,0,0-1.56-.21l-.22.35c-3,5.34-4.47,11.82-3.13,17.86,1.05,4.7,4.82,7.82,9.35,9.18A11.92,11.92,0,0,1,428.05,166Z"/><path class="cls-7" d="M446,156.06c-.58-.64-1.49-1.5-1.88.45a4.42,4.42,0,0,1-.71,1.59,9.91,9.91,0,0,0-1.94-3.94,8.1,8.1,0,0,1-1.58-4.37.45.45,0,0,0-.75-.3,12.74,12.74,0,0,0-4.16,9.44,6.52,6.52,0,0,1-1.7-2.66.6.6,0,0,0-1.06-.14l-.14.23A17.33,17.33,0,0,0,430,168.45c1.52,6.84,11.57,8.76,16.9,4.46a8.6,8.6,0,0,0,3.18-5.84A14.73,14.73,0,0,0,446,156.06Z"/><path class="cls-8" d="M443.3,164.54c-.33-.36-.83-.84-1.05.25a2.39,2.39,0,0,1-.39.88,5.51,5.51,0,0,0-1.09-2.19,4.61,4.61,0,0,1-.88-2.44.25.25,0,0,0-.42-.16,7.1,7.1,0,0,0-2.31,5.25,3.5,3.5,0,0,1-1-1.48.33.33,0,0,0-.59-.08l-.08.13a9.66,9.66,0,0,0-1.18,6.74c1.15,5.19,10.61,5,11.19-.77A8.18,8.18,0,0,0,443.3,164.54Z"/><path class="cls-9" d="M436.56,172.47a7.88,7.88,0,0,1,1.18-6l.08-.11a.34.34,0,0,1,.58.07,3.29,3.29,0,0,0,1,1.32,6,6,0,0,1,1.6-4,4.51,4.51,0,0,1-1.06-2.66.25.25,0,0,0-.42-.16,7.1,7.1,0,0,0-2.31,5.25,3.5,3.5,0,0,1-1-1.48.33.33,0,0,0-.59-.08l-.08.13a9.66,9.66,0,0,0-1.18,6.74,5.08,5.08,0,0,0,4.52,3.68A4.12,4.12,0,0,1,436.56,172.47Z"/><path class="cls-4" d="M431.42,126.41a4.81,4.81,0,0,0,0-7.47A4.81,4.81,0,0,0,431.42,126.41Z"/><path class="cls-4" d="M459.9,141.92a4.81,4.81,0,0,0,0-7.47C458.81,135.33,457.53,140,459.9,141.92Z"/><path class="cls-4" d="M417.81,143.4a3.47,3.47,0,0,0,0-5.39C417,138.64,416.1,142,417.81,143.4Z"/><path class="cls-4" d="M447.47,131.8a3.47,3.47,0,0,0,0-5.39A3.47,3.47,0,0,0,447.47,131.8Z"/><path class="cls-6" d="M434.86,150.29A19.45,19.45,0,0,1,440,138.37c0-.23-.05-.46-.07-.7a.67.67,0,0,0-1.11-.44,18.44,18.44,0,0,0-5.83,10.6h0c-.06.31-.12.75-.17,1.1h0c-.08.73-.14,1.47-.15,2.23C432.76,151.19,434.63,152.15,434.86,150.29Z"/><path class="cls-10" d="M432.72,169.42A18.64,18.64,0,0,1,434.2,158a6.67,6.67,0,0,1-.9-1.74.6.6,0,0,0-1.06-.14l-.14.23A17.33,17.33,0,0,0,430,168.45c.71,3.21,3.29,5.33,6.39,6.24A8.32,8.32,0,0,1,432.72,169.42Z"/><path class="cls-10" d="M437.92,157.26a13.61,13.61,0,0,1,2.28-5.78,9.71,9.71,0,0,1-.29-1.69.45.45,0,0,0-.75-.3,12.46,12.46,0,0,0-3.51,5.43h0a13.31,13.31,0,0,0-.35,1.3h0a14.15,14.15,0,0,0-.3,2.71C436.48,159.12,437.71,158.75,437.92,157.26Z"/></g></g></svg>